<?xml version="1.0" encoding="utf-8"?>
<!-- Generator: Adobe Illustrator 21.0.2, SVG Export Plug-In . SVG Version: 6.00 Build 0)  -->
<svg version="1.1" id="logo" xmlns="http://www.w3.org/2000/svg" xmlns:xlink="http://www.w3.org/1999/xlink" x="0px" y="0px"
	 viewBox="0 0 6027.4 1479" style="enable-background:new 0 0 6027.4 1479;" xml:space="preserve">
<style type="text/css">
	.st0{fill:#1A3462;}
	.st1{fill:#14509C;}
	.st2{fill:#F78F1E;}
	.st3{fill:none;}
</style>
<polygon class="st0" points="2157.5,0 1493.5,0 997.5,861 1657.5,861 "/>
<polygon class="st0" points="1160,0 496,0 0,861 660,861 "/>
<polygon class="st1" points="496,0 1160,0 1656,861 996,861 "/>
<polygon class="st1" points="1495,0 2159,0 2655,861 1995,861 "/>
<polygon class="st2" points="3155,-0.2 2491,-0.3 1995,860.8 2322.7,1426.6 "/>
<polygon class="st2" points="3013.6,398.7 2865.1,660.6 3520.6,660.6 3666.1,398.7 "/>
<g>
	<rect x="2801.1" y="1004.9" class="st3" width="3987.5" height="529.8"/>
	<path class="st1" d="M3166.9,1227c-0.7-3-1.9-11.5-3.5-25.2c-1.4-11.5-2.7-20.9-3.8-28.5c-1.6,9-3.9,17.9-6.8,26.9
		c-3,9-6.7,18.1-11.1,27.4L3038.8,1437l-102.9-213.8c-4.3-8.8-8-17.3-11.1-25.5c-3.1-8.2-5.9-16.4-8.2-24.4
		c-0.2,8.2-0.9,16.9-2,25.9c-1.2,9-2.9,18.5-5.2,28.3l-42.2,193.6h-58.8l92.9-409.8l116,248.1c1.8,3.9,4.5,10.5,8.2,19.6
		c3.7,9.1,8.1,20.4,13.3,33.8c3.8-11.3,9.7-25.6,17.7-43c2.1-4.7,3.8-8.2,4.8-10.7l113.3-247.9l95.1,409.8h-59.4L3166.9,1227z"/>
	<path class="st1" d="M3509.8,1421.2v-179.9L3377.4,1028h67.1l82.4,133.5c2,3.4,4.4,7.9,7.4,13.4c3,5.6,5.9,11.5,9,18
		c2.5-6.3,5.1-12.2,7.9-17.7c2.8-5.5,5.7-10.7,8.7-15.3l84.6-131.9h63.9l-135.4,213.2v179.9H3509.8z"/>
	<path class="st1" d="M3855.8,1421.2V1028h219.4v54.2h-155.5v98h155.5v56.1h-155.5v184.8H3855.8z"/>
	<path class="st1" d="M4250,1421.2V1028h63.9v393.2H4250z"/>
	<path class="st1" d="M4510.3,1421.2v-408.7l249.8,240.4c6.8,6.8,13.7,14.1,20.7,21.8c7,7.7,14.3,16.4,22,26V1028h59.1v408.5
		L4607,1191.9c-6.8-6.6-13.4-13.6-19.7-20.9c-6.4-7.3-12.4-15-18.1-23.1v273.4H4510.3z"/>
	<path class="st1" d="M5327,1421.2V1028h99.1c28.3,0,49.2,1.5,62.7,4.6c13.5,3,25,8.1,34.5,15c12.2,9,21.6,20.7,28.3,35.2
		c6.7,14.5,10.1,30.5,10.1,48.1c0,20.9-4.8,38.4-14.5,52.5c-9.7,14.1-23.7,23.9-42.2,29.4c22.9,3.6,41,14,54.1,31.3
		c13.2,17.3,19.7,39.1,19.7,65.4c0,15.9-2.8,31.1-8.3,45.4c-5.6,14.3-13.4,26.5-23.6,36.5c-10.7,10.9-24.1,18.6-40,23.1
		c-15.9,4.5-42.7,6.7-80.3,6.7H5327z M5389.6,1194h24.4c30.4,0,52-4.2,64.6-12.5c12.6-8.3,18.9-22.3,18.9-42
		c0-21.5-5.8-36.6-17.5-45.3c-11.6-8.7-33.7-13-66.1-13h-24.4V1194z M5389.6,1367.8h22c22.4,0,39.1-0.9,50.2-2.7
		c11.1-1.8,19.9-4.9,26.3-9.4c7.9-5.2,14-12.2,18.3-20.9c4.3-8.8,6.4-18.4,6.4-29c0-12.5-2.6-23.5-7.8-32.8
		c-5.2-9.3-12.6-16.6-22.3-21.8c-6.1-3-13-5.3-20.8-6.7c-7.8-1.4-18.1-2.1-31-2.1h-19.3h-22V1367.8z"/>
	<path class="st1" d="M5823.4,1421.2v-179.9L5691,1028h67.1l82.4,133.5c2,3.4,4.4,7.9,7.4,13.4c3,5.6,5.9,11.5,9,18
		c2.5-6.3,5.1-12.2,7.9-17.7c2.8-5.5,5.7-10.7,8.7-15.3l84.6-131.9h63.9l-135.4,213.2v179.9H5823.4z"/>
</g>
<circle class="st2" cx="5113.7" cy="1389.7" r="89.3"/>
<polygon class="st2" points="3239.6,0 3091.1,261.9 3746.6,261.9 3892.1,0 "/>
</svg>
